<svg aria-hidden="true" style="position: absolute; width: 0; height: 0; overflow: hidden;" version="1.1" xmlns="http://www.w3.org/2000/svg" xmlns:xlink="http://www.w3.org/1999/xlink">
    <defs>
        <symbol id="icon-blackboard" viewBox="0 0 20 20">
            <path d="M2.539 20h3.461l1.406-3.698-2.966-1.004-1.901 4.702zM12.594 16.302l1.406 3.698h3.461l-1.901-4.702-2.966 1.004zM18 2h-6.5l-0.5-2h-2l-0.5 2h-6.5c-0.553 0-1 0.447-1 1v11c0 0.552 0.447 1 1 1h16c0.553 0 1-0.448 1-1v-11c0-0.552-0.447-1-1-1z"></path>
        </symbol>
        <symbol id="icon-brush" viewBox="0 0 20 20">
            <path d="M2.763 13.563c-1.515 1.488-0.235 3.016-2.247 5.279-0.908 1.023 3.738 0.711 6.039-1.551 0.977-0.961 0.701-2.359-0.346-3.389-1.047-1.028-2.47-1.3-3.446-0.339zM19.539 0.659c-0.776-0.764-9.379 6.129-11.939 8.646-1.271 1.25-1.695 1.92-2.084 2.42-0.17 0.219 0.055 0.285 0.154 0.336 0.504 0.258 0.856 0.496 1.311 0.943s0.699 0.793 0.959 1.289c0.053 0.098 0.121 0.318 0.342 0.152 0.51-0.383 1.191-0.801 2.462-2.049 2.561-2.516 9.573-10.974 8.795-11.737z"></path>
        </symbol>
        <symbol id="icon-sports-club" viewBox="0 0 20 20">
            <path d="M6 13.5l4 2.5 4-2.5v-8.5h-8v8.5zM4.5 10c0-1.105-0.896-2-2-2s-2 0.895-2 2c0 1.105 0.896 2 2 2s2-0.895 2-2zM17.5 8c-1.104 0-2 0.895-2 2s0.896 2 2 2 2-0.895 2-2c0-1.105-0.896-2-2-2zM4.485 6.199c1.255-1.815 3.317-2.899 5.515-2.899 2.158 0 4.198 1.056 5.456 2.823 0.449 0.629 1.323 0.776 1.952 0.329 0.63-0.448 0.777-1.323 0.329-1.953-1.782-2.504-4.675-3.999-7.737-3.999-3.117 0-6.040 1.535-7.817 4.107-0.439 0.636-0.28 1.508 0.355 1.948 0.637 0.438 1.508 0.279 1.947-0.356zM15.456 13.877c-1.258 1.768-3.298 2.823-5.456 2.823-2.198 0-4.26-1.084-5.515-2.899-0.439-0.636-1.311-0.794-1.947-0.356-0.636 0.44-0.795 1.312-0.355 1.948 1.777 2.572 4.7 4.107 7.817 4.107 3.062 0 5.955-1.495 7.737-3.999 0.448-0.63 0.301-1.504-0.329-1.953-0.629-0.447-1.503-0.3-1.952 0.329z"></path>
        </symbol>
        <symbol id="icon-retweet" viewBox="0 0 20 20">
            <path d="M5 13v-5h2l-3.5-4-3.5 4h2v6c0 1.104 0.895 2 2 2h9.482l-2.638-3h-5.844zM9.156 7l-2.638-3h9.482c1.104 0 2 0.897 2 2v6h2l-3.5 4-3.5-4h2v-5h-5.844z"></path>
        </symbol>
        <symbol id="icon-tablet" viewBox="0 0 20 20">
            <path d="M16 0h-12c-1.1 0-2 0.899-2 2v16c0 1.1 0.9 2 2 2h12c1.101 0 2-0.9 2-2v-16c0-1.101-0.899-2-2-2zM10 19c-0.69 0-1.25-0.447-1.25-1s0.56-1 1.25-1c0.689 0 1.25 0.447 1.25 1s-0.561 1-1.25 1zM16 16h-12v-14h12v14z"></path>
        </symbol>
        <symbol id="icon-stats-dots" viewBox="0 0 32 32">
            <path d="M4 28h28v4h-32v-32h4zM9 26c-1.657 0-3-1.343-3-3s1.343-3 3-3c0.088 0 0.176 0.005 0.262 0.012l3.225-5.375c-0.307-0.471-0.487-1.033-0.487-1.638 0-1.657 1.343-3 3-3s3 1.343 3 3c0 0.604-0.179 1.167-0.487 1.638l3.225 5.375c0.086-0.007 0.174-0.012 0.262-0.012 0.067 0 0.133 0.003 0.198 0.007l5.324-9.316c-0.329-0.482-0.522-1.064-0.522-1.691 0-1.657 1.343-3 3-3s3 1.343 3 3c0 1.657-1.343 3-3 3-0.067 0-0.133-0.003-0.198-0.007l-5.324 9.316c0.329 0.481 0.522 1.064 0.522 1.691 0 1.657-1.343 3-3 3s-3-1.343-3-3c0-0.604 0.179-1.167 0.487-1.638l-3.225-5.375c-0.086 0.007-0.174 0.012-0.262 0.012s-0.176-0.005-0.262-0.012l-3.225 5.375c0.307 0.471 0.487 1.033 0.487 1.637 0 1.657-1.343 3-3 3z"></path>
        </symbol>
    </defs>
</svg>
