<?xml version="1.0" standalone="no"?>
<!DOCTYPE svg PUBLIC "-//W3C//DTD SVG 20010904//EN"
 "http://www.w3.org/TR/2001/REC-SVG-20010904/DTD/svg10.dtd">
<svg version="1.0" xmlns="http://www.w3.org/2000/svg"
 width="251.000000pt" height="251.000000pt" viewBox="0 0 251.000000 251.000000"
 preserveAspectRatio="xMidYMid meet">
<metadata>
Created by potrace 1.11, written by Peter Selinger 2001-2013
</metadata>
<g transform="translate(0.000000,251.000000) scale(0.100000,-0.100000)"
fill="#000000" stroke="none">
<path d="M2437 2504 c-1 -1 -20 -5 -42 -8 -22 -4 -65 -14 -95 -22 -30 -9 -59
-17 -65 -19 -5 -1 -17 -5 -25 -8 -8 -3 -40 -13 -70 -22 -71 -22 -357 -135
-446 -176 -38 -17 -91 -41 -119 -54 -257 -115 -597 -306 -832 -468 -285 -195
-534 -446 -646 -648 -35 -65 -77 -184 -85 -244 -12 -99 2 -263 28 -314 4 -9
21 -42 36 -74 52 -106 168 -214 299 -280 114 -57 325 -116 473 -133 26 -3 58
-7 72 -9 56 -10 255 -18 415 -17 160 0 487 11 492 16 2 2 -67 26 -153 54 -423
141 -693 342 -821 612 -47 98 -67 197 -67 330 1 110 4 135 28 205 104 304 409
590 946 890 58 32 202 103 608 302 131 64 160 89 102 89 -17 0 -31 -1 -33 -2z"/>
</g>
</svg>
