<svg width="434" height="120" viewBox="0 0 434 120" fill="none" xmlns="http://www.w3.org/2000/svg">
<path d="M87.0236 55.665C90.2536 54.0817 93.5469 52.9417 96.9036 52.245C100.324 51.485 104.124 51.105 108.304 51.105C112.357 51.105 115.714 51.4217 118.374 52.055C121.034 52.6883 123.155 53.6067 124.739 54.81C126.322 56.0133 127.43 57.4383 128.064 59.085C128.697 60.7317 129.014 62.6 129.014 64.69C129.014 65.8933 128.919 67.1917 128.729 68.585C128.602 69.9783 128.444 71.15 128.254 72.1L123.789 93H108.494L106.784 86.92H106.214C104.187 89.1367 101.812 90.8467 99.0886 92.05C96.4286 93.19 93.7686 93.76 91.1086 93.76C89.5886 93.76 88.1003 93.5383 86.6436 93.095C85.1869 92.6517 83.8886 91.9867 82.7486 91.1C81.6086 90.15 80.6903 88.9783 79.9936 87.585C79.2969 86.1283 78.9486 84.3867 78.9486 82.36C78.9486 79.0667 79.8353 76.47 81.6086 74.57C83.4453 72.6067 85.8203 71.15 88.7336 70.2C91.7103 69.1867 95.0353 68.5533 98.7086 68.3C102.445 68.0467 106.182 67.92 109.919 67.92C110.045 67.2867 110.204 66.4 110.394 65.26C110.584 64.0567 110.679 63.0117 110.679 62.125C110.679 60.985 110.362 59.94 109.729 58.99C109.159 57.9767 107.924 57.47 106.024 57.47C103.807 57.47 102.16 58.135 101.084 59.465C100.07 60.7317 99.4053 62.2833 99.0886 64.12H85.2186L87.0236 55.665ZM108.874 72.385H107.164C105.327 72.385 103.744 72.6383 102.414 73.145C101.147 73.5883 100.102 74.19 99.2786 74.95C98.5186 75.71 97.9486 76.565 97.5686 77.515C97.1886 78.465 96.9986 79.415 96.9986 80.365C96.9986 81.885 97.3786 83.025 98.1386 83.785C98.9619 84.545 99.9119 84.925 100.989 84.925C102.319 84.925 103.617 84.45 104.884 83.5C106.214 82.55 107.037 81.2833 107.354 79.7L108.874 72.385ZM161.481 62.885L171.456 52.15H182.381L165.186 69.82L177.441 93H157.301L150.651 80.46L138.111 93H127.186L147.041 73.62L135.736 52.15H155.781L161.481 62.885ZM185.491 52.15C187.834 51.6433 189.893 51.0733 191.666 50.44C193.439 49.8067 195.054 49.015 196.511 48.065C198.031 47.115 199.456 45.9433 200.786 44.55C202.179 43.1567 203.668 41.4467 205.251 39.42H215.036L212.281 52.15H219.691L218.456 58.515H210.951L207.056 77.04C206.739 78.4967 206.486 79.795 206.296 80.935C206.106 82.075 206.011 82.9617 206.011 83.595C206.011 84.8617 206.454 85.6533 207.341 85.97C208.291 86.2867 210.033 86.445 212.566 86.445L211.141 93C210.698 93.1267 210.001 93.2217 209.051 93.285C208.164 93.3483 207.151 93.4117 206.011 93.475C204.934 93.6017 203.794 93.665 202.591 93.665C201.451 93.7283 200.438 93.76 199.551 93.76C197.968 93.76 196.416 93.6333 194.896 93.38C193.376 93.19 192.014 92.7783 190.811 92.145C189.608 91.4483 188.626 90.4667 187.866 89.2C187.169 87.9333 186.821 86.2233 186.821 84.07C186.821 83.31 186.853 82.36 186.916 81.22C187.043 80.08 187.264 78.8133 187.581 77.42L191.571 58.515H184.161L185.491 52.15ZM247.413 51.105C254.95 51.105 260.428 52.435 263.848 55.095C267.458 57.8817 269.263 62.505 269.263 68.965C269.263 72.955 268.598 76.565 267.268 79.795C265.938 82.9617 264.07 85.59 261.663 87.68C256.85 91.7333 249.883 93.76 240.763 93.76C232.973 93.76 227.4 92.2717 224.043 89.295C220.433 86.1917 218.628 81.5367 218.628 75.33C218.628 71.2133 219.452 67.4767 221.098 64.12C222.808 60.7633 225.247 57.9767 228.413 55.76C233.037 52.6567 239.37 51.105 247.413 51.105ZM240.953 87.3C242.537 87.3 243.898 86.4133 245.038 84.64C246.242 82.8667 247.192 80.7133 247.888 78.18C248.585 75.5833 249.092 72.9233 249.408 70.2C249.788 67.4133 249.978 65.0067 249.978 62.98C249.978 61.2067 249.788 59.8767 249.408 58.99C249.092 58.04 248.363 57.565 247.223 57.565C245.513 57.565 244.025 58.4833 242.758 60.32C241.555 62.1567 240.573 64.3417 239.813 66.875C239.053 69.4083 238.483 72.005 238.103 74.665C237.787 77.325 237.628 79.4783 237.628 81.125C237.628 85.2417 238.737 87.3 240.953 87.3ZM297.592 58.23C298.922 56.9633 300.41 55.7917 302.057 54.715C303.514 53.8283 305.224 53.005 307.187 52.245C309.15 51.485 311.335 51.105 313.742 51.105C317.035 51.105 319.759 51.96 321.912 53.67C324.065 55.3167 325.142 57.5967 325.142 60.51C325.142 61.3333 325.047 62.3467 324.857 63.55C324.667 64.69 324.445 65.8933 324.192 67.16C323.939 68.4267 323.654 69.725 323.337 71.055C323.084 72.3217 322.862 73.4617 322.672 74.475L318.682 93H299.397L304.622 68.205C304.749 67.3817 304.907 66.5583 305.097 65.735C305.287 64.8483 305.382 64.0567 305.382 63.36C305.382 62.41 305.129 61.65 304.622 61.08C304.179 60.4467 303.482 60.13 302.532 60.13C301.392 60.13 300.284 60.5417 299.207 61.365C298.194 62.1883 297.402 62.885 296.832 63.455L290.562 93H271.182L279.827 52.15H295.312L297.022 58.23H297.592ZM379.704 65.45H404.309L398.799 93H387.589L385.784 86.92H385.404C383.758 88.82 381.794 90.435 379.514 91.765C377.298 93.095 374.384 93.76 370.774 93.76C367.988 93.76 365.296 93.3167 362.699 92.43C360.166 91.48 357.886 90.0233 355.859 88.06C353.896 86.0333 352.313 83.405 351.109 80.175C349.906 76.945 349.304 73.05 349.304 68.49C349.304 63.55 350.064 58.8633 351.584 54.43C353.104 49.9967 355.384 46.1017 358.424 42.745C361.464 39.325 365.264 36.6333 369.824 34.67C374.384 32.7067 379.704 31.725 385.784 31.725C390.471 31.725 394.556 32.2633 398.039 33.34C401.523 34.4167 404.816 35.62 407.919 36.95L404.309 55.38H388.254C388.318 54.6833 388.413 53.86 388.539 52.91C388.666 51.96 388.761 50.9783 388.824 49.965C388.888 48.8883 388.951 47.8433 389.014 46.83C389.078 45.8167 389.109 44.93 389.109 44.17C389.109 43.6633 389.078 43.0933 389.014 42.46C388.951 41.7633 388.793 41.0983 388.539 40.465C388.286 39.8317 387.906 39.325 387.399 38.945C386.893 38.5017 386.164 38.28 385.214 38.28C383.568 38.28 382.048 38.9767 380.654 40.37C379.324 41.7 378.121 43.505 377.044 45.785C375.968 48.0017 375.018 50.535 374.194 53.385C373.434 56.235 372.769 59.1483 372.199 62.125C371.693 65.0383 371.281 67.92 370.964 70.77C370.711 73.5567 370.584 75.995 370.584 78.085C370.584 78.7183 370.616 79.51 370.679 80.46C370.743 81.41 370.933 82.36 371.249 83.31C371.629 84.1967 372.136 84.9883 372.769 85.685C373.466 86.3183 374.448 86.635 375.714 86.635C377.804 86.635 379.831 85.495 381.794 83.215C383.758 80.935 385.246 77.135 386.259 71.815H378.279L379.704 65.45ZM426.217 84.64C426.217 86.0967 425.9 87.395 425.267 88.535C424.697 89.675 423.905 90.625 422.892 91.385C421.942 92.145 420.833 92.715 419.567 93.095C418.3 93.5383 416.97 93.76 415.577 93.76C413.17 93.76 411.112 93.1267 409.402 91.86C407.755 90.53 406.932 88.4717 406.932 85.685C406.932 84.2283 407.217 82.93 407.787 81.79C408.357 80.65 409.117 79.7 410.067 78.94C411.017 78.18 412.093 77.61 413.297 77.23C414.563 76.7867 415.862 76.565 417.192 76.565C419.788 76.565 421.942 77.23 423.652 78.56C425.362 79.8267 426.217 81.8533 426.217 84.64Z" fill="black"/>
<path d="M25.5 54C25.5 81.6142 89.1142 96.5 61.5 96.5C33.8858 96.5 0 81.6142 0 54C0 26.3858 165.386 6 193 6C220.614 6 25.5 26.3858 25.5 54Z" fill="black"/>
</svg>
