<svg width="0" height="0" class="hidden">
  <symbol xmlns="http://www.w3.org/2000/svg" viewBox="0 0 434 120" id="logo">
    <path d="M87.024 55.665c3.23-1.583 6.523-2.723 9.88-3.42 3.42-.76 7.22-1.14 11.4-1.14 4.053 0 7.41.317 10.07.95s4.781 1.552 6.365 2.755c1.583 1.203 2.691 2.628 3.325 4.275.633 1.647.95 3.515.95 5.605 0 1.203-.095 2.502-.285 3.895-.127 1.393-.285 2.565-.475 3.515L123.789 93h-15.295l-1.71-6.08h-.57a21.133 21.133 0 01-7.125 5.13c-2.66 1.14-5.32 1.71-7.98 1.71a15.26 15.26 0 01-4.465-.665 11.942 11.942 0 01-3.895-1.995c-1.14-.95-2.059-2.122-2.755-3.515-.697-1.457-1.045-3.198-1.045-5.225 0-3.293.886-5.89 2.66-7.79 1.836-1.963 4.211-3.42 7.125-4.37 2.976-1.013 6.301-1.647 9.975-1.9a165.7 165.7 0 0111.21-.38c.126-.633.285-1.52.475-2.66.19-1.203.285-2.248.285-3.135 0-1.14-.317-2.185-.95-3.135-.57-1.013-1.805-1.52-3.705-1.52-2.217 0-3.864.665-4.94 1.995-1.014 1.267-1.679 2.818-1.995 4.655h-13.87l1.805-8.455zm21.85 16.72h-1.71c-1.837 0-3.42.253-4.75.76-1.267.443-2.312 1.045-3.135 1.805a7.592 7.592 0 00-1.71 2.565c-.38.95-.57 1.9-.57 2.85 0 1.52.38 2.66 1.14 3.42.823.76 1.773 1.14 2.85 1.14 1.33 0 2.628-.475 3.895-1.425 1.33-.95 2.153-2.217 2.47-3.8l1.52-7.315zm52.607-9.5l9.975-10.735h10.925l-17.195 17.67L177.441 93h-20.14l-6.65-12.54L138.111 93h-10.925l19.855-19.38-11.305-21.47h20.045l5.7 10.735zm24.01-10.735c2.343-.507 4.402-1.077 6.175-1.71a22.988 22.988 0 004.845-2.375c1.52-.95 2.945-2.122 4.275-3.515 1.393-1.393 2.882-3.103 4.465-5.13h9.785l-2.755 12.73h7.41l-1.235 6.365h-7.505l-3.895 18.525a81.71 81.71 0 00-.76 3.895c-.19 1.14-.285 2.027-.285 2.66 0 1.267.443 2.058 1.33 2.375.95.317 2.692.475 5.225.475L211.141 93c-.443.127-1.14.222-2.09.285-.887.063-1.9.127-3.04.19-1.077.127-2.217.19-3.42.19-1.14.063-2.153.095-3.04.095-1.583 0-3.135-.127-4.655-.38-1.52-.19-2.882-.602-4.085-1.235-1.203-.697-2.185-1.678-2.945-2.945-.697-1.267-1.045-2.977-1.045-5.13 0-.76.032-1.71.095-2.85.127-1.14.348-2.407.665-3.8l3.99-18.905h-7.41l1.33-6.365zm61.922-1.045c7.537 0 13.015 1.33 16.435 3.99 3.61 2.787 5.415 7.41 5.415 13.87 0 3.99-.665 7.6-1.995 10.83-1.33 3.167-3.198 5.795-5.605 7.885-4.813 4.053-11.78 6.08-20.9 6.08-7.79 0-13.363-1.488-16.72-4.465-3.61-3.103-5.415-7.758-5.415-13.965 0-4.117.824-7.853 2.47-11.21 1.71-3.357 4.149-6.143 7.315-8.36 4.624-3.103 10.957-4.655 19-4.655zm-6.46 36.195c1.584 0 2.945-.887 4.085-2.66 1.204-1.773 2.154-3.927 2.85-6.46a55.348 55.348 0 001.52-7.98c.38-2.787.57-5.193.57-7.22 0-1.773-.19-3.103-.57-3.99-.316-.95-1.045-1.425-2.185-1.425-1.71 0-3.198.918-4.465 2.755-1.203 1.837-2.185 4.022-2.945 6.555a53.303 53.303 0 00-1.71 7.79c-.316 2.66-.475 4.813-.475 6.46 0 4.117 1.109 6.175 3.325 6.175zm56.639-29.07a31.221 31.221 0 014.465-3.515c1.457-.887 3.167-1.71 5.13-2.47 1.963-.76 4.148-1.14 6.555-1.14 3.293 0 6.017.855 8.17 2.565 2.153 1.647 3.23 3.927 3.23 6.84 0 .823-.095 1.837-.285 3.04a115.07 115.07 0 01-.665 3.61 108.298 108.298 0 01-.855 3.895 299.323 299.323 0 00-.665 3.42L318.682 93h-19.285l5.225-24.795c.127-.823.285-1.647.475-2.47.19-.887.285-1.678.285-2.375 0-.95-.253-1.71-.76-2.28-.443-.633-1.14-.95-2.09-.95-1.14 0-2.248.412-3.325 1.235-1.013.823-1.805 1.52-2.375 2.09L290.562 93h-19.38l8.645-40.85h15.485l1.71 6.08h.57zm82.112 7.22h24.605L398.799 93h-11.21l-1.805-6.08h-.38c-1.646 1.9-3.61 3.515-5.89 4.845-2.216 1.33-5.13 1.995-8.74 1.995a24.82 24.82 0 01-8.075-1.33c-2.533-.95-4.813-2.407-6.84-4.37-1.963-2.027-3.546-4.655-4.75-7.885-1.203-3.23-1.805-7.125-1.805-11.685 0-4.94.76-9.627 2.28-14.06 1.52-4.433 3.8-8.328 6.84-11.685 3.04-3.42 6.84-6.112 11.4-8.075 4.56-1.963 9.88-2.945 15.96-2.945 4.687 0 8.772.538 12.255 1.615a100.072 100.072 0 019.88 3.61l-3.61 18.43h-16.055c.064-.697.159-1.52.285-2.47.127-.95.222-1.932.285-2.945.064-1.077.127-2.122.19-3.135.064-1.013.095-1.9.095-2.66 0-.507-.031-1.077-.095-1.71a7.03 7.03 0 00-.475-1.995 3.453 3.453 0 00-1.14-1.52c-.506-.443-1.235-.665-2.185-.665-1.646 0-3.166.697-4.56 2.09-1.33 1.33-2.533 3.135-3.61 5.415-1.076 2.217-2.026 4.75-2.85 7.6-.76 2.85-1.425 5.763-1.995 8.74a142.717 142.717 0 00-1.235 8.645c-.253 2.787-.38 5.225-.38 7.315 0 .633.032 1.425.095 2.375.064.95.254 1.9.57 2.85.38.887.887 1.678 1.52 2.375.697.633 1.679.95 2.945.95 2.09 0 4.117-1.14 6.08-3.42 1.964-2.28 3.452-6.08 4.465-11.4h-7.98l1.425-6.365zm46.513 19.19c0 1.457-.317 2.755-.95 3.895a7.97 7.97 0 01-2.375 2.85c-.95.76-2.059 1.33-3.325 1.71a11.994 11.994 0 01-3.99.665c-2.407 0-4.465-.633-6.175-1.9-1.647-1.33-2.47-3.388-2.47-6.175 0-1.457.285-2.755.855-3.895a8.412 8.412 0 012.28-2.85 9.877 9.877 0 013.23-1.71 11.707 11.707 0 013.895-.665c2.596 0 4.75.665 6.46 1.995 1.71 1.267 2.565 3.293 2.565 6.08z"></path>
    <path d="M25.5 54c0 27.614 63.614 42.5 36 42.5C33.886 96.5 0 81.614 0 54S165.386 6 193 6C220.614 6 25.5 26.386 25.5 54z"></path>
  </symbol>
</svg>